STARTFONT 2.1
FONT -sun-timmons-medium-i-normal--12-120-75-75-p-63-adobe-fontspecific
SIZE 12 75 75
FONTBOUNDINGBOX 16 15 -3 -3

STARTPROPERTIES 28
FOUNDRY "sun"
FAMILY_NAME "timmons"
WEIGHT_NAME "medium"
SLANT "i"
SETWIDTH_NAME "normal"
ADD_STYLE_NAME ""
PIXEL_SIZE 12
POINT_SIZE 120
RESOLUTION_X 75
RESOLUTION_Y 75
SPACING "p"
AVERAGE_WIDTH 63
CHARSET_REGISTRY "adobe"
CHARSET_ENCODING "fontspecific"
COPYRIGHT "© 1999 Sun Microsystems, Inc."
RAW_PIXELSIZE 1000
RAW_POINTSIZE 964
RAW_ASCENT 924
RAW_DESCENT 196
RAW_AVERAGE_WIDTH 5015
FACE_NAME "TimmonsItalicnsB5"
_XMBDFED_INFO "Edited with xmbdfed 2.4."
WEIGHT 10
X_HEIGHT -1
QUAD_WIDTH 7
DEFAULT_CHAR 4
FONT_DESCENT 3
FONT_ASCENT 12
ENDPROPERTIES

CHARS 214

STARTCHAR char32
ENCODING 32
SWIDTH 21 0
DWIDTH 3 0
BBX 0 0 0 0
BITMAP
ENDCHAR

STARTCHAR char33
ENCODING 33
SWIDTH 21 0
DWIDTH 3 0
BBX 3 9 1 0
BITMAP
20
20
20
40
40
40
40
00
80
ENDCHAR

STARTCHAR char34
ENCODING 34
SWIDTH 28 0
DWIDTH 4 0
BBX 3 3 2 6
BITMAP
A0
A0
A0
ENDCHAR

STARTCHAR char35
ENCODING 35
SWIDTH 43 0
DWIDTH 6 0
BBX 6 9 0 0
BITMAP
28
28
FC
48
48
68
D0
50
50
ENDCHAR

STARTCHAR char36
ENCODING 36
SWIDTH 43 0
DWIDTH 6 0
BBX 7 11 0 -1
BITMAP
10
38
4C
4C
70
30
18
98
A8
F0
20
ENDCHAR

STARTCHAR char37
ENCODING 37
SWIDTH 64 0
DWIDTH 9 0
BBX 9 9 0 0
BITMAP
2200
5200
D200
9500
9A80
EC80
1480
1480
1700
ENDCHAR

STARTCHAR char38
ENCODING 38
SWIDTH 57 0
DWIDTH 8 0
BBX 8 9 0 0
BITMAP
0C
14
14
18
76
9C
8C
88
76
ENDCHAR

STARTCHAR char39
ENCODING 39
SWIDTH 21 0
DWIDTH 3 0
BBX 2 3 2 6
BITMAP
40
80
80
ENDCHAR

STARTCHAR char40
ENCODING 40
SWIDTH 28 0
DWIDTH 4 0
BBX 5 11 1 -2
BITMAP
10
20
40
40
C0
80
80
80
80
40
40
ENDCHAR

STARTCHAR char41
ENCODING 41
SWIDTH 28 0
DWIDTH 4 0
BBX 5 11 -1 -2
BITMAP
10
08
08
08
08
18
10
10
20
40
80
ENDCHAR

STARTCHAR char42
ENCODING 42
SWIDTH 35 0
DWIDTH 5 0
BBX 5 5 1 4
BITMAP
20
F8
20
78
20
ENDCHAR

STARTCHAR char43
ENCODING 43
SWIDTH 57 0
DWIDTH 8 0
BBX 8 7 0 0
BITMAP
08
08
08
FF
08
08
08
ENDCHAR

STARTCHAR char44
ENCODING 44
SWIDTH 21 0
DWIDTH 3 0
BBX 2 3 0 -2
BITMAP
40
80
80
ENDCHAR

STARTCHAR char45
ENCODING 45
SWIDTH 28 0
DWIDTH 4 0
BBX 4 1 0 3
BITMAP
F0
ENDCHAR

STARTCHAR char46
ENCODING 46
SWIDTH 21 0
DWIDTH 3 0
BBX 1 1 1 0
BITMAP
80
ENDCHAR

STARTCHAR char47
ENCODING 47
SWIDTH 28 0
DWIDTH 4 0
BBX 5 9 0 0
BITMAP
08
10
10
20
20
20
40
40
80
ENDCHAR

STARTCHAR char48
ENCODING 48
SWIDTH 43 0
DWIDTH 6 0
BBX 6 9 0 0
BITMAP
18
24
44
44
C4
C4
88
88
70
ENDCHAR

STARTCHAR char49
ENCODING 49
SWIDTH 43 0
DWIDTH 6 0
BBX 5 9 0 0
BITMAP
18
08
10
10
10
20
20
20
E0
ENDCHAR

STARTCHAR char50
ENCODING 50
SWIDTH 43 0
DWIDTH 6 0
BBX 6 9 -1 0
BITMAP
18
24
04
04
04
08
10
24
78
ENDCHAR

STARTCHAR char51
ENCODING 51
SWIDTH 43 0
DWIDTH 6 0
BBX 6 9 0 0
BITMAP
18
24
08
10
10
08
08
10
E0
ENDCHAR

STARTCHAR char52
ENCODING 52
SWIDTH 43 0
DWIDTH 6 0
BBX 6 9 0 0
BITMAP
04
0C
18
28
48
48
F8
10
10
ENDCHAR

STARTCHAR char53
ENCODING 53
SWIDTH 43 0
DWIDTH 6 0
BBX 6 9 0 0
BITMAP
1C
20
20
30
08
08
08
10
E0
ENDCHAR

STARTCHAR char54
ENCODING 54
SWIDTH 43 0
DWIDTH 6 0
BBX 6 9 0 0
BITMAP
0C
10
20
78
4C
C4
84
88
70
ENDCHAR

STARTCHAR char55
ENCODING 55
SWIDTH 43 0
DWIDTH 6 0
BBX 5 9 1 0
BITMAP
78
48
08
10
10
20
40
40
80
ENDCHAR

STARTCHAR char56
ENCODING 56
SWIDTH 43 0
DWIDTH 6 0
BBX 6 9 0 0
BITMAP
18
24
24
38
30
48
88
88
70
ENDCHAR

STARTCHAR char57
ENCODING 57
SWIDTH 43 0
DWIDTH 6 0
BBX 6 9 0 0
BITMAP
18
24
44
44
4C
38
18
30
40
ENDCHAR

STARTCHAR char58
ENCODING 58
SWIDTH 21 0
DWIDTH 3 0
BBX 3 6 1 0
BITMAP
20
00
00
00
00
C0
ENDCHAR

STARTCHAR char59
ENCODING 59
SWIDTH 21 0
DWIDTH 3 0
BBX 4 8 0 -2
BITMAP
10
10
00
00
00
60
40
40
ENDCHAR

STARTCHAR char60
ENCODING 60
SWIDTH 50 0
DWIDTH 7 0
BBX 6 6 0 0
BITMAP
0C
30
C0
60
18
04
ENDCHAR

STARTCHAR char61
ENCODING 61
SWIDTH 57 0
DWIDTH 8 0
BBX 8 3 0 2
BITMAP
FF
00
FF
ENDCHAR

STARTCHAR char62
ENCODING 62
SWIDTH 50 0
DWIDTH 7 0
BBX 6 6 0 0
BITMAP
C0
38
04
0C
70
80
ENDCHAR

STARTCHAR char63
ENCODING 63
SWIDTH 35 0
DWIDTH 5 0
BBX 4 9 2 0
BITMAP
60
90
10
20
40
80
80
00
80
ENDCHAR

STARTCHAR char64
ENCODING 64
SWIDTH 27 0
DWIDTH 14 0
BBX 9 9 2 0
BITMAP
3E00
4100
DE80
A680
A480
A580
DE00
4100
3E00
ENDCHAR

STARTCHAR char65
ENCODING 65
SWIDTH 57 0
DWIDTH 8 0
BBX 8 9 -1 0
BITMAP
02
02
06
06
0A
12
3E
42
4E
ENDCHAR

STARTCHAR char66
ENCODING 66
SWIDTH 50 0
DWIDTH 7 0
BBX 8 9 -1 0
BITMAP
1E
19
11
12
3C
22
22
22
FC
ENDCHAR

STARTCHAR char67
ENCODING 67
SWIDTH 57 0
DWIDTH 8 0
BBX 8 9 1 0
BITMAP
1F
21
41
C0
80
80
80
46
78
ENDCHAR

STARTCHAR char68
ENCODING 68
SWIDTH 57 0
DWIDTH 8 0
BBX 8 9 0 0
BITMAP
3C
32
21
21
61
41
42
44
F8
ENDCHAR

STARTCHAR char69
ENCODING 69
SWIDTH 50 0
DWIDTH 7 0
BBX 7 9 1 0
BITMAP
7E
62
40
48
70
88
84
88
F8
ENDCHAR

STARTCHAR char70
ENCODING 70
SWIDTH 43 0
DWIDTH 6 0
BBX 8 9 0 0
BITMAP
3C
13
30
24
38
64
40
40
E0
ENDCHAR

STARTCHAR char71
ENCODING 71
SWIDTH 57 0
DWIDTH 8 0
BBX 8 9 1 0
BITMAP
1F
22
42
C0
8E
86
84
44
7C
ENDCHAR

STARTCHAR char72
ENCODING 72
SWIDTH 64 0
DWIDTH 9 0
BBX 11 9 -1 0
BITMAP
18E0
1880
1080
1180
3F00
2100
2100
2300
E700
ENDCHAR

STARTCHAR char73
ENCODING 73
SWIDTH 28 0
DWIDTH 4 0
BBX 5 9 0 0
BITMAP
38
10
30
20
20
20
60
40
C0
ENDCHAR

STARTCHAR char74
ENCODING 74
SWIDTH 35 0
DWIDTH 5 0
BBX 6 9 0 0
BITMAP
1C
08
18
10
10
10
30
A0
C0
ENDCHAR

STARTCHAR char75
ENCODING 75
SWIDTH 57 0
DWIDTH 8 0
BBX 10 9 -1 0
BITMAP
19C0
1900
1600
1400
3800
2C00
2400
2600
E300
ENDCHAR

STARTCHAR char76
ENCODING 76
SWIDTH 50 0
DWIDTH 7 0
BBX 8 9 -1 0
BITMAP
18
18
10
10
10
20
21
21
FE
ENDCHAR

STARTCHAR char77
ENCODING 77
SWIDTH 71 0
DWIDTH 10 0
BBX 12 9 -1 0
BITMAP
1860
18E0
18C0
18C0
2940
2AC0
2E80
4880
E980
ENDCHAR

STARTCHAR char78
ENCODING 78
SWIDTH 57 0
DWIDTH 8 0
BBX 11 9 -1 0
BITMAP
18E0
1840
1880
1C80
2480
2700
2300
2200
C200
ENDCHAR

STARTCHAR char79
ENCODING 79
SWIDTH 57 0
DWIDTH 8 0
BBX 7 9 1 0
BITMAP
1C
62
42
C2
82
86
84
8C
70
ENDCHAR

STARTCHAR char80
ENCODING 80
SWIDTH 50 0
DWIDTH 7 0
BBX 8 9 -1 0
BITMAP
1E
09
19
11
1E
30
20
20
E0
ENDCHAR

STARTCHAR char81
ENCODING 81
SWIDTH 57 0
DWIDTH 8 0
BBX 7 11 1 -2
BITMAP
1C
62
42
82
82
86
84
88
70
22
7C
ENDCHAR

STARTCHAR char82
ENCODING 82
SWIDTH 57 0
DWIDTH 8 0
BBX 8 9 -1 0
BITMAP
1E
19
11
12
3C
24
24
22
F3
ENDCHAR

STARTCHAR char83
ENCODING 83
SWIDTH 43 0
DWIDTH 6 0
BBX 7 9 0 0
BITMAP
3E
44
44
60
30
08
88
88
F0
ENDCHAR

STARTCHAR char84
ENCODING 84
SWIDTH 50 0
DWIDTH 7 0
BBX 7 9 1 0
BITMAP
F8
96
92
30
20
20
60
40
40
ENDCHAR

STARTCHAR char85
ENCODING 85
SWIDTH 57 0
DWIDTH 8 0
BBX 8 9 1 0
BITMAP
73
62
42
42
42
82
84
8C
70
ENDCHAR

STARTCHAR char86
ENCODING 86
SWIDTH 57 0
DWIDTH 8 0
BBX 7 9 2 0
BITMAP
C6
C4
C8
90
90
A0
C0
80
80
ENDCHAR

STARTCHAR char87
ENCODING 87
SWIDTH 6 0
DWIDTH 11 0
BBX 12 8 1 1
BITMAP
7E20
4620
4440
4C80
5500
6600
6600
4400
ENDCHAR

STARTCHAR char88
ENCODING 88
SWIDTH 50 0
DWIDTH 7 0
BBX 10 9 -1 0
BITMAP
3D80
1900
0A00
0C00
0800
1C00
2400
2400
C600
ENDCHAR

STARTCHAR char89
ENCODING 89
SWIDTH 50 0
DWIDTH 7 0
BBX 8 9 1 0
BITMAP
FB
22
24
38
10
30
20
20
F0
ENDCHAR

STARTCHAR char90
ENCODING 90
SWIDTH 57 0
DWIDTH 8 0
BBX 8 9 0 0
BITMAP
7F
42
04
0C
18
30
60
C1
FE
ENDCHAR

STARTCHAR char91
ENCODING 91
SWIDTH 28 0
DWIDTH 4 0
BBX 5 11 0 -2
BITMAP
18
30
20
20
20
40
40
40
80
80
C0
ENDCHAR

STARTCHAR char92
ENCODING 92
SWIDTH 28 0
DWIDTH 4 0
BBX 4 9 0 0
BITMAP
80
80
40
40
40
20
20
20
20
ENDCHAR

STARTCHAR char93
ENCODING 93
SWIDTH 28 0
DWIDTH 4 0
BBX 6 11 -1 -2
BITMAP
18
08
08
08
10
10
10
20
20
20
E0
ENDCHAR

STARTCHAR char94
ENCODING 94
SWIDTH 0 0
DWIDTH 0 0
BBX 4 1 0 10
BITMAP
60
ENDCHAR

STARTCHAR char95
ENCODING 95
SWIDTH 50 0
DWIDTH 7 0
BBX 7 1 0 -2
BITMAP
FE
ENDCHAR

STARTCHAR char96
ENCODING 96
SWIDTH 0 0
DWIDTH 0 0
BBX 2 2 0 7
BITMAP
40
40
ENDCHAR

STARTCHAR char97
ENCODING 97
SWIDTH 43 0
DWIDTH 6 0
BBX 7 6 0 0
BITMAP
3C
4C
48
88
9E
E8
ENDCHAR

STARTCHAR char98
ENCODING 98
SWIDTH 43 0
DWIDTH 6 0
BBX 6 9 0 0
BITMAP
20
20
20
3C
44
44
4C
48
F0
ENDCHAR

STARTCHAR char99
ENCODING 99
SWIDTH 35 0
DWIDTH 5 0
BBX 5 6 0 0
BITMAP
38
68
C0
80
80
70
ENDCHAR

STARTCHAR char100
ENCODING 100
SWIDTH 43 0
DWIDTH 6 0
BBX 7 9 0 0
BITMAP
06
04
04
1C
6C
48
88
98
F8
ENDCHAR

STARTCHAR char101
ENCODING 101
SWIDTH 35 0
DWIDTH 5 0
BBX 5 6 0 0
BITMAP
38
48
70
80
80
F0
ENDCHAR

STARTCHAR char102
ENCODING 102
SWIDTH 21 0
DWIDTH 3 0
BBX 8 11 -2 -2
BITMAP
03
05
08
1C
08
08
10
10
10
20
C0
ENDCHAR

STARTCHAR char103
ENCODING 103
SWIDTH 35 0
DWIDTH 5 0
BBX 7 8 -1 -2
BITMAP
38
64
4C
38
40
78
84
F8
ENDCHAR

STARTCHAR char104
ENCODING 104
SWIDTH 43 0
DWIDTH 6 0
BBX 6 9 0 0
BITMAP
20
20
20
2C
74
44
44
88
8C
ENDCHAR

STARTCHAR char105
ENCODING 105
SWIDTH 21 0
DWIDTH 3 0
BBX 3 8 1 0
BITMAP
20
00
C0
40
40
80
80
80
ENDCHAR

STARTCHAR char106
ENCODING 106
SWIDTH 21 0
DWIDTH 3 0
BBX 5 10 -2 -2
BITMAP
08
00
18
10
10
10
10
20
20
C0
ENDCHAR

STARTCHAR char107
ENCODING 107
SWIDTH 43 0
DWIDTH 6 0
BBX 7 8 0 0
BITMAP
20
20
2C
50
70
50
D6
48
ENDCHAR

STARTCHAR char108
ENCODING 108
SWIDTH 21 0
DWIDTH 3 0
BBX 3 9 1 0
BITMAP
20
20
40
40
40
40
80
80
80
ENDCHAR

STARTCHAR char109
ENCODING 109
SWIDTH 64 0
DWIDTH 9 0
BBX 8 6 0 0
BITMAP
99
6F
6D
9A
92
93
ENDCHAR

STARTCHAR char110
ENCODING 110
SWIDTH 43 0
DWIDTH 6 0
BBX 6 6 0 0
BITMAP
4C
74
68
48
C8
58
ENDCHAR

STARTCHAR char111
ENCODING 111
SWIDTH 43 0
DWIDTH 6 0
BBX 6 6 0 0
BITMAP
38
44
C4
8C
88
F0
ENDCHAR

STARTCHAR char112
ENCODING 112
SWIDTH 43 0
DWIDTH 6 0
BBX 7 8 -2 -2
BITMAP
1E
1A
12
12
24
38
20
60
ENDCHAR

STARTCHAR char113
ENCODING 113
SWIDTH 43 0
DWIDTH 6 0
BBX 6 8 0 -2
BITMAP
3C
4C
48
88
98
F0
10
38
ENDCHAR

STARTCHAR char114
ENCODING 114
SWIDTH 28 0
DWIDTH 4 0
BBX 5 6 0 0
BITMAP
68
38
70
40
40
40
ENDCHAR

STARTCHAR char115
ENCODING 115
SWIDTH 35 0
DWIDTH 5 0
BBX 5 6 0 0
BITMAP
78
48
60
30
90
F0
ENDCHAR

STARTCHAR char116
ENCODING 116
SWIDTH 21 0
DWIDTH 3 0
BBX 3 7 1 0
BITMAP
40
E0
40
40
80
80
80
ENDCHAR

STARTCHAR char117
ENCODING 117
SWIDTH 43 0
DWIDTH 6 0
BBX 6 6 0 0
BITMAP
64
64
28
58
58
68
ENDCHAR

STARTCHAR char118
ENCODING 118
SWIDTH 35 0
DWIDTH 5 0
BBX 5 6 0 0
BITMAP
C8
48
48
70
30
20
ENDCHAR

STARTCHAR char119
ENCODING 119
SWIDTH 50 0
DWIDTH 7 0
BBX 8 6 0 0
BITMAP
CB
49
7A
6A
4C
48
ENDCHAR

STARTCHAR char120
ENCODING 120
SWIDTH 43 0
DWIDTH 6 0
BBX 7 6 -1 0
BITMAP
66
14
18
18
28
44
ENDCHAR

STARTCHAR char121
ENCODING 121
SWIDTH 35 0
DWIDTH 5 0
BBX 6 8 -1 -2
BITMAP
64
24
24
28
38
20
60
C0
ENDCHAR

STARTCHAR char122
ENCODING 122
SWIDTH 35 0
DWIDTH 5 0
BBX 5 6 0 0
BITMAP
78
50
20
40
48
F0
ENDCHAR

STARTCHAR char123
ENCODING 123
SWIDTH 28 0
DWIDTH 4 0
BBX 3 12 1 -3
BITMAP
60
40
40
40
C0
80
80
40
40
40
40
60
ENDCHAR

STARTCHAR char124
ENCODING 124
SWIDTH 21 0
DWIDTH 3 0
BBX 1 9 1 0
BITMAP
80
80
80
80
80
80
80
80
80
ENDCHAR

STARTCHAR char125
ENCODING 125
SWIDTH 28 0
DWIDTH 4 0
BBX 3 12 1 -3
BITMAP
80
40
40
40
40
20
40
40
40
40
40
C0
ENDCHAR

STARTCHAR char126
ENCODING 126
SWIDTH 0 0
DWIDTH 0 0
BBX 5 1 0 10
BITMAP
F0
ENDCHAR

STARTCHAR char128
ENCODING 128
SWIDTH 43 0
DWIDTH 6 0
BBX 7 9 0 0
BITMAP
0E
12
22
20
F8
F8
40
4C
70
ENDCHAR

STARTCHAR char130
ENCODING 130
SWIDTH 21 0
DWIDTH 3 0
BBX 2 3 0 -2
BITMAP
40
80
80
ENDCHAR

STARTCHAR char131
ENCODING 131
SWIDTH 0 0
DWIDTH 0 0
BBX 4 1 0 10
BITMAP
60
ENDCHAR

STARTCHAR char132
ENCODING 132
SWIDTH 35 0
DWIDTH 5 0
BBX 3 3 0 -2
BITMAP
60
E0
A0
ENDCHAR

STARTCHAR char133
ENCODING 133
SWIDTH 20 0
DWIDTH 13 0
BBX 9 1 2 0
BITMAP
8880
ENDCHAR

STARTCHAR char134
ENCODING 134
SWIDTH 43 0
DWIDTH 6 0
BBX 5 11 1 -2
BITMAP
10
10
10
F8
20
20
40
40
40
80
80
ENDCHAR

STARTCHAR char135
ENCODING 135
SWIDTH 13 0
DWIDTH 12 0
BBX 0 0 0 0
BITMAP
ENDCHAR

STARTCHAR char136
ENCODING 136
SWIDTH 0 0
DWIDTH 0 0
BBX 4 2 0 7
BITMAP
60
90
ENDCHAR

STARTCHAR char137
ENCODING 137
SWIDTH 13 0
DWIDTH 12 0
BBX 0 0 0 0
BITMAP
ENDCHAR

STARTCHAR char138
ENCODING 138
SWIDTH 13 0
DWIDTH 12 0
BBX 0 0 0 0
BITMAP
ENDCHAR

STARTCHAR char139
ENCODING 139
SWIDTH 28 0
DWIDTH 4 0
BBX 2 5 1 1
BITMAP
40
40
80
40
40
ENDCHAR

STARTCHAR char140
ENCODING 140
SWIDTH 13 0
DWIDTH 12 0
BBX 12 9 0 0
BITMAP
0FF0
3110
6100
4320
C3C0
8240
8600
C620
7FE0
ENDCHAR

STARTCHAR char141
ENCODING 141
SWIDTH 13 0
DWIDTH 12 0
BBX 0 0 0 0
BITMAP
ENDCHAR

STARTCHAR char143
ENCODING 143
SWIDTH 13 0
DWIDTH 12 0
BBX 0 0 0 0
BITMAP
ENDCHAR

STARTCHAR char145
ENCODING 145
SWIDTH 21 0
DWIDTH 3 0
BBX 2 3 2 6
BITMAP
40
80
80
ENDCHAR

STARTCHAR char146
ENCODING 146
SWIDTH 21 0
DWIDTH 3 0
BBX 2 3 2 6
BITMAP
40
40
80
ENDCHAR

STARTCHAR char147
ENCODING 147
SWIDTH 35 0
DWIDTH 5 0
BBX 4 3 2 6
BITMAP
50
A0
A0
ENDCHAR

STARTCHAR char148
ENCODING 148
SWIDTH 35 0
DWIDTH 5 0
BBX 4 3 2 6
BITMAP
50
50
A0
ENDCHAR

STARTCHAR char149
ENCODING 149
SWIDTH 28 0
DWIDTH 4 0
BBX 3 3 1 3
BITMAP
E0
E0
E0
ENDCHAR

STARTCHAR char150
ENCODING 150
SWIDTH 43 0
DWIDTH 6 0
BBX 5 1 0 3
BITMAP
F8
ENDCHAR

STARTCHAR char151
ENCODING 151
SWIDTH 57 0
DWIDTH 8 0
BBX 8 1 0 3
BITMAP
FF
ENDCHAR

STARTCHAR char152
ENCODING 152
SWIDTH 0 0
DWIDTH 0 0
BBX 5 2 -1 7
BITMAP
78
90
ENDCHAR

STARTCHAR char153
ENCODING 153
SWIDTH 71 0
DWIDTH 10 0
BBX 11 6 -1 3
BITMAP
7460
AE40
26C0
26C0
2540
6560
ENDCHAR

STARTCHAR char154
ENCODING 154
SWIDTH 13 0
DWIDTH 12 0
BBX 0 0 0 0
BITMAP
ENDCHAR

STARTCHAR char155
ENCODING 155
SWIDTH 28 0
DWIDTH 4 0
BBX 2 5 1 1
BITMAP
80
80
40
C0
80
ENDCHAR

STARTCHAR char156
ENCODING 156
SWIDTH 64 0
DWIDTH 9 0
BBX 9 6 0 0
BITMAP
3B80
4C80
CF00
8800
9800
EE00
ENDCHAR

STARTCHAR char157
ENCODING 157
SWIDTH 13 0
DWIDTH 12 0
BBX 0 0 0 0
BITMAP
ENDCHAR

STARTCHAR char159
ENCODING 159
SWIDTH 50 0
DWIDTH 7 0
BBX 8 11 1 0
BITMAP
16
00
E3
26
34
18
10
10
30
20
F0
ENDCHAR

STARTCHAR char160
ENCODING 160
SWIDTH 21 0
DWIDTH 3 0
BBX 0 0 0 0
BITMAP
ENDCHAR

STARTCHAR char161
ENCODING 161
SWIDTH 21 0
DWIDTH 3 0
BBX 3 9 0 0
BITMAP
20
00
20
20
20
40
40
40
C0
ENDCHAR

STARTCHAR char162
ENCODING 162
SWIDTH 35 0
DWIDTH 5 0
BBX 5 9 0 -2
BITMAP
10
10
78
50
A0
A0
70
40
40
ENDCHAR

STARTCHAR char163
ENCODING 163
SWIDTH 43 0
DWIDTH 6 0
BBX 8 9 -1 0
BITMAP
07
09
08
18
3C
10
10
F2
FC
ENDCHAR

STARTCHAR char164
ENCODING 164
SWIDTH 0 0
DWIDTH 0 0
BBX 3 1 1 10
BITMAP
40
ENDCHAR

STARTCHAR char165
ENCODING 165
SWIDTH 0 0
DWIDTH 0 0
BBX 4 1 0 10
BITMAP
60
ENDCHAR

STARTCHAR char166
ENCODING 166
SWIDTH 13 0
DWIDTH 12 0
BBX 0 0 0 0
BITMAP
ENDCHAR

STARTCHAR char167
ENCODING 167
SWIDTH 35 0
DWIDTH 5 0
BBX 6 12 0 -2
BITMAP
1C
24
20
20
70
98
C8
48
70
20
A0
C0
ENDCHAR

STARTCHAR char168
ENCODING 168
SWIDTH 0 0
DWIDTH 0 0
BBX 3 1 0 7
BITMAP
A0
ENDCHAR

STARTCHAR char169
ENCODING 169
SWIDTH 64 0
DWIDTH 9 0
BBX 9 8 0 0
BITMAP
3C00
DF00
A480
A080
A080
A680
DB00
3C00
ENDCHAR

STARTCHAR char170
ENCODING 170
SWIDTH 0 0
DWIDTH 0 0
BBX 4 1 0 10
BITMAP
90
ENDCHAR

STARTCHAR char171
ENCODING 171
SWIDTH 35 0
DWIDTH 5 0
BBX 6 6 0 0
BITMAP
24
48
50
50
48
48
ENDCHAR

STARTCHAR char172
ENCODING 172
SWIDTH 57 0
DWIDTH 8 0
BBX 8 4 0 0
BITMAP
FF
01
01
01
ENDCHAR

STARTCHAR char173
ENCODING 173
SWIDTH 13 0
DWIDTH 12 0
BBX 0 0 0 0
BITMAP
ENDCHAR

STARTCHAR char174
ENCODING 174
SWIDTH 64 0
DWIDTH 9 0
BBX 9 8 0 0
BITMAP
3C00
FB00
9480
9680
9880
9480
F700
3C00
ENDCHAR

STARTCHAR char175
ENCODING 175
SWIDTH 13 0
DWIDTH 12 0
BBX 0 0 0 0
BITMAP
ENDCHAR

STARTCHAR char176
ENCODING 176
SWIDTH 21 0
DWIDTH 3 0
BBX 4 5 1 4
BITMAP
20
50
90
D0
20
ENDCHAR

STARTCHAR char177
ENCODING 177
SWIDTH 43 0
DWIDTH 6 0
BBX 6 8 0 0
BITMAP
20
20
20
FC
20
20
20
FC
ENDCHAR

STARTCHAR char178
ENCODING 178
SWIDTH 13 0
DWIDTH 12 0
BBX 0 0 0 0
BITMAP
ENDCHAR

STARTCHAR char179
ENCODING 179
SWIDTH 13 0
DWIDTH 12 0
BBX 0 0 0 0
BITMAP
ENDCHAR

STARTCHAR char180
ENCODING 180
SWIDTH 0 0
DWIDTH 0 0
BBX 2 2 1 7
BITMAP
40
80
ENDCHAR

STARTCHAR char181
ENCODING 181
SWIDTH 13 0
DWIDTH 12 0
BBX 0 0 0 0
BITMAP
ENDCHAR

STARTCHAR char182
ENCODING 182
SWIDTH 64 0
DWIDTH 9 0
BBX 6 11 1 -2
BITMAP
7C
E8
E8
E8
68
28
28
28
28
28
28
ENDCHAR

STARTCHAR char183
ENCODING 183
SWIDTH 14 0
DWIDTH 2 0
BBX 1 1 1 3
BITMAP
80
ENDCHAR

STARTCHAR char184
ENCODING 184
SWIDTH 0 0
DWIDTH 0 0
BBX 2 3 -2 -3
BITMAP
40
40
80
ENDCHAR

STARTCHAR char186
ENCODING 186
SWIDTH 0 0
DWIDTH 0 0
BBX 5 1 0 10
BITMAP
F0
ENDCHAR

STARTCHAR char187
ENCODING 187
SWIDTH 35 0
DWIDTH 5 0
BBX 5 6 0 0
BITMAP
48
48
28
48
90
A0
ENDCHAR

STARTCHAR char188
ENCODING 188
SWIDTH 13 0
DWIDTH 12 0
BBX 0 0 0 0
BITMAP
ENDCHAR

STARTCHAR char189
ENCODING 189
SWIDTH 13 0
DWIDTH 12 0
BBX 0 0 0 0
BITMAP
ENDCHAR

STARTCHAR char191
ENCODING 191
SWIDTH 35 0
DWIDTH 5 0
BBX 5 9 0 0
BITMAP
08
00
10
10
20
40
C0
90
F0
ENDCHAR

STARTCHAR char192
ENCODING 192
SWIDTH 57 0
DWIDTH 8 0
BBX 8 11 -1 0
BITMAP
06
00
02
02
06
06
0A
12
3E
42
4E
ENDCHAR

STARTCHAR char193
ENCODING 193
SWIDTH 57 0
DWIDTH 8 0
BBX 8 11 -1 0
BITMAP
02
00
02
02
06
06
0A
12
3E
42
4E
ENDCHAR

STARTCHAR char194
ENCODING 194
SWIDTH 57 0
DWIDTH 8 0
BBX 8 11 -1 0
BITMAP
06
00
02
02
06
06
0A
12
3E
42
4E
ENDCHAR

STARTCHAR char195
ENCODING 195
SWIDTH 57 0
DWIDTH 8 0
BBX 7 11 0 0
BITMAP
1E
00
04
04
0C
0C
14
24
7C
84
9C
ENDCHAR

STARTCHAR char196
ENCODING 196
SWIDTH 57 0
DWIDTH 8 0
BBX 10 11 -1 0
BITMAP
0240
0000
0200
0200
0600
0600
0A00
1200
3E00
4200
4E00
ENDCHAR

STARTCHAR char197
ENCODING 197
SWIDTH 57 0
DWIDTH 8 0
BBX 8 12 0 0
BITMAP
03
03
03
04
04
0C
0C
14
24
7C
84
9C
ENDCHAR

STARTCHAR char198
ENCODING 198
SWIDTH 6 0
DWIDTH 11 0
BBX 12 9 -1 0
BITMAP
03F0
0310
0700
0A20
0BC0
1E40
2620
4420
CFC0
ENDCHAR

STARTCHAR char199
ENCODING 199
SWIDTH 57 0
DWIDTH 8 0
BBX 8 12 1 -3
BITMAP
1F
21
41
C0
80
80
80
46
78
20
20
40
ENDCHAR

STARTCHAR char200
ENCODING 200
SWIDTH 50 0
DWIDTH 7 0
BBX 7 11 1 0
BITMAP
18
00
7E
62
40
48
70
88
84
88
F8
ENDCHAR

STARTCHAR char201
ENCODING 201
SWIDTH 50 0
DWIDTH 7 0
BBX 7 11 1 0
BITMAP
08
00
7E
62
40
48
70
88
84
88
F8
ENDCHAR

STARTCHAR char202
ENCODING 202
SWIDTH 50 0
DWIDTH 7 0
BBX 7 11 1 0
BITMAP
18
00
7E
62
40
48
70
88
84
88
F8
ENDCHAR

STARTCHAR char203
ENCODING 203
SWIDTH 50 0
DWIDTH 7 0
BBX 9 11 -1 0
BITMAP
0980
0000
1F80
1880
1000
1200
1C00
2200
2100
2100
FE00
ENDCHAR

STARTCHAR char204
ENCODING 204
SWIDTH 28 0
DWIDTH 4 0
BBX 5 11 0 0
BITMAP
10
00
38
10
30
20
20
20
60
40
C0
ENDCHAR

STARTCHAR char205
ENCODING 205
SWIDTH 28 0
DWIDTH 4 0
BBX 6 11 0 0
BITMAP
18
00
38
10
30
20
20
20
60
40
C0
ENDCHAR

STARTCHAR char206
ENCODING 206
SWIDTH 28 0
DWIDTH 4 0
BBX 5 11 0 0
BITMAP
38
00
38
10
30
20
20
20
60
40
C0
ENDCHAR

STARTCHAR char207
ENCODING 207
SWIDTH 28 0
DWIDTH 4 0
BBX 6 11 0 0
BITMAP
24
00
18
10
10
20
20
20
60
40
C0
ENDCHAR

STARTCHAR char208
ENCODING 208
SWIDTH 13 0
DWIDTH 12 0
BBX 0 0 0 0
BITMAP
ENDCHAR

STARTCHAR char209
ENCODING 209
SWIDTH 57 0
DWIDTH 8 0
BBX 11 11 -1 0
BITMAP
0780
0000
18E0
1840
1880
1C80
2480
2700
2300
2200
C200
ENDCHAR

STARTCHAR char210
ENCODING 210
SWIDTH 57 0
DWIDTH 8 0
BBX 7 11 1 0
BITMAP
08
00
1C
62
42
C2
82
86
84
8C
70
ENDCHAR

STARTCHAR char211
ENCODING 211
SWIDTH 57 0
DWIDTH 8 0
BBX 7 11 1 0
BITMAP
08
00
1C
62
42
C2
82
86
84
8C
70
ENDCHAR

STARTCHAR char212
ENCODING 212
SWIDTH 57 0
DWIDTH 8 0
BBX 7 11 1 0
BITMAP
1C
00
1C
62
42
C2
82
86
84
8C
70
ENDCHAR

STARTCHAR char213
ENCODING 213
SWIDTH 57 0
DWIDTH 8 0
BBX 7 11 1 0
BITMAP
1E
00
1C
62
42
C2
82
86
84
8C
70
ENDCHAR

STARTCHAR char214
ENCODING 214
SWIDTH 57 0
DWIDTH 8 0
BBX 7 11 1 0
BITMAP
12
00
3C
62
42
C2
82
86
84
88
70
ENDCHAR

STARTCHAR char215
ENCODING 215
SWIDTH 13 0
DWIDTH 12 0
BBX 0 0 0 0
BITMAP
ENDCHAR

STARTCHAR char216
ENCODING 216
SWIDTH 57 0
DWIDTH 8 0
BBX 7 11 1 -1
BITMAP
02
1E
66
4A
8A
92
A6
A4
CC
70
80
ENDCHAR

STARTCHAR char217
ENCODING 217
SWIDTH 57 0
DWIDTH 8 0
BBX 8 11 1 0
BITMAP
08
00
73
62
42
42
42
82
84
8C
70
ENDCHAR

STARTCHAR char218
ENCODING 218
SWIDTH 57 0
DWIDTH 8 0
BBX 8 11 1 0
BITMAP
0C
00
73
62
42
42
42
82
84
8C
70
ENDCHAR

STARTCHAR char219
ENCODING 219
SWIDTH 57 0
DWIDTH 8 0
BBX 8 11 1 0
BITMAP
1C
00
73
62
42
42
42
82
84
8C
70
ENDCHAR

STARTCHAR char220
ENCODING 220
SWIDTH 57 0
DWIDTH 8 0
BBX 8 11 1 0
BITMAP
12
00
73
62
42
42
42
C2
84
88
70
ENDCHAR

STARTCHAR char221
ENCODING 221
SWIDTH 13 0
DWIDTH 12 0
BBX 0 0 0 0
BITMAP
ENDCHAR

STARTCHAR char222
ENCODING 222
SWIDTH 13 0
DWIDTH 12 0
BBX 0 0 0 0
BITMAP
ENDCHAR

STARTCHAR char223
ENCODING 223
SWIDTH 43 0
DWIDTH 6 0
BBX 9 11 -3 -2
BITMAP
0300
0480
0480
0D00
0900
0900
1100
1500
1600
2000
C000
ENDCHAR

STARTCHAR char224
ENCODING 224
SWIDTH 43 0
DWIDTH 6 0
BBX 7 9 0 0
BITMAP
18
08
00
3C
6C
48
88
9E
E8
ENDCHAR

STARTCHAR char225
ENCODING 225
SWIDTH 43 0
DWIDTH 6 0
BBX 7 9 0 0
BITMAP
0C
08
00
3C
6C
48
88
9E
E8
ENDCHAR

STARTCHAR char226
ENCODING 226
SWIDTH 43 0
DWIDTH 6 0
BBX 7 9 0 0
BITMAP
08
14
00
3C
6C
48
88
9E
E8
ENDCHAR

STARTCHAR char227
ENCODING 227
SWIDTH 43 0
DWIDTH 6 0
BBX 7 9 0 0
BITMAP
1E
28
00
3C
6C
48
88
9E
E8
ENDCHAR

STARTCHAR char228
ENCODING 228
SWIDTH 43 0
DWIDTH 6 0
BBX 6 8 0 0
BITMAP
14
00
1C
24
44
88
98
E8
ENDCHAR

STARTCHAR char229
ENCODING 229
SWIDTH 43 0
DWIDTH 6 0
BBX 6 9 0 0
BITMAP
0C
0C
00
1C
64
44
88
98
EC
ENDCHAR

STARTCHAR char230
ENCODING 230
SWIDTH 57 0
DWIDTH 8 0
BBX 9 6 0 0
BITMAP
3780
4C80
4F00
8800
9800
EE00
ENDCHAR

STARTCHAR char231
ENCODING 231
SWIDTH 35 0
DWIDTH 5 0
BBX 6 9 0 -3
BITMAP
1C
2C
40
40
40
70
20
40
C0
ENDCHAR

STARTCHAR char232
ENCODING 232
SWIDTH 35 0
DWIDTH 5 0
BBX 5 9 0 0
BITMAP
10
10
00
38
48
70
80
80
F0
ENDCHAR

STARTCHAR char233
ENCODING 233
SWIDTH 35 0
DWIDTH 5 0
BBX 5 9 0 0
BITMAP
08
10
00
38
48
70
80
80
E0
ENDCHAR

STARTCHAR char234
ENCODING 234
SWIDTH 35 0
DWIDTH 5 0
BBX 6 9 0 0
BITMAP
18
24
00
38
48
70
80
80
E0
ENDCHAR

STARTCHAR char235
ENCODING 235
SWIDTH 35 0
DWIDTH 5 0
BBX 5 8 0 0
BITMAP
28
00
38
50
70
80
80
E0
ENDCHAR

STARTCHAR char236
ENCODING 236
SWIDTH 21 0
DWIDTH 3 0
BBX 3 9 1 0
BITMAP
40
20
00
C0
40
80
80
80
80
ENDCHAR

STARTCHAR char237
ENCODING 237
SWIDTH 21 0
DWIDTH 3 0
BBX 4 9 1 0
BITMAP
20
20
00
C0
40
80
80
80
80
ENDCHAR

STARTCHAR char238
ENCODING 238
SWIDTH 21 0
DWIDTH 3 0
BBX 4 9 1 0
BITMAP
20
50
00
C0
40
80
80
80
80
ENDCHAR

STARTCHAR char239
ENCODING 239
SWIDTH 21 0
DWIDTH 3 0
BBX 4 8 1 0
BITMAP
90
00
C0
80
80
80
80
80
ENDCHAR

STARTCHAR char241
ENCODING 241
SWIDTH 43 0
DWIDTH 6 0
BBX 7 9 0 0
BITMAP
0A
3C
00
68
74
68
48
C8
58
ENDCHAR

STARTCHAR char242
ENCODING 242
SWIDTH 43 0
DWIDTH 6 0
BBX 6 9 0 0
BITMAP
18
08
00
38
44
C4
8C
88
F0
ENDCHAR

STARTCHAR char243
ENCODING 243
SWIDTH 43 0
DWIDTH 6 0
BBX 6 9 0 0
BITMAP
08
08
00
38
44
C4
8C
88
F0
ENDCHAR

STARTCHAR char244
ENCODING 244
SWIDTH 43 0
DWIDTH 6 0
BBX 6 9 0 0
BITMAP
0C
14
00
38
44
C4
8C
88
F0
ENDCHAR

STARTCHAR char245
ENCODING 245
SWIDTH 43 0
DWIDTH 6 0
BBX 7 9 0 0
BITMAP
1E
2C
00
38
44
C4
8C
88
F0
ENDCHAR

STARTCHAR char246
ENCODING 246
SWIDTH 43 0
DWIDTH 6 0
BBX 6 8 0 0
BITMAP
14
00
38
44
C4
8C
88
F0
ENDCHAR

STARTCHAR char247
ENCODING 247
SWIDTH 43 0
DWIDTH 6 0
BBX 6 4 0 1
BITMAP
20
FC
00
20
ENDCHAR

STARTCHAR char248
ENCODING 248
SWIDTH 43 0
DWIDTH 6 0
BBX 5 8 1 -1
BITMAP
08
30
E8
A8
D8
D0
E0
80
ENDCHAR

STARTCHAR char249
ENCODING 249
SWIDTH 43 0
DWIDTH 6 0
BBX 6 9 0 0
BITMAP
08
08
00
64
64
28
58
58
68
ENDCHAR

STARTCHAR char250
ENCODING 250
SWIDTH 43 0
DWIDTH 6 0
BBX 6 9 0 0
BITMAP
0C
08
00
64
64
28
58
58
68
ENDCHAR

STARTCHAR char251
ENCODING 251
SWIDTH 43 0
DWIDTH 6 0
BBX 6 9 0 0
BITMAP
0C
14
00
64
64
28
58
58
68
ENDCHAR

STARTCHAR char252
ENCODING 252
SWIDTH 43 0
DWIDTH 6 0
BBX 6 8 0 0
BITMAP
14
00
64
64
28
58
58
68
ENDCHAR

STARTCHAR char255
ENCODING 255
SWIDTH 35 0
DWIDTH 5 0
BBX 7 10 -1 -2
BITMAP
12
00
64
24
24
28
38
20
20
C0
ENDCHAR
ENDFONT
